<?xml version="1.0" encoding="UTF-8" standalone="no"?>
<!-- Created with Inkscape (http://www.inkscape.org/) -->
<svg
   width="174.92583mm"
   height="313.14124mm"
   viewBox="0 0 174.92583 313.14124"
   version="1.1"
   id="animacao"
   xml:space="preserve"
   inkscape:export-filename="bitmap.svg"
   inkscape:export-xdpi="96"
   inkscape:export-ydpi="96"
   xmlns:inkscape="http://www.inkscape.org/namespaces/inkscape"
   xmlns:sodipodi="http://sodipodi.sourceforge.net/DTD/sodipodi-0.dtd"
   xmlns="http://www.w3.org/2000/svg"
   xmlns:svg="http://www.w3.org/2000/svg">
   <style>
      #animacao-path {
         fill: transparent
      }

      #animacao-path {
         stroke-width: 20px;
         stroke: red
      }
   </style>
   <sodipodi:namedview
     id="camada1"
     pagecolor="#ffffff"
     bordercolor="#000000"
     borderopacity="0.25"
     inkscape:showpageshadow="2"
     inkscape:pageopacity="0.0"
     inkscape:pagecheckerboard="0"
     inkscape:deskcolor="#d1d1d1"
     inkscape:document-units="mm"
     showgrid="false" /><defs
     id="defs2" /><g
     inkscape:label="Camada 1"
     inkscape:groupmode="layer"
     id="layer1"
     transform="translate(-57.841253,-21.118038)">
     <g
       transform="matrix(0.03527778,0,0,-0.03527778,46.570946,338.58278)"
       fill="#000000"
       stroke="none"
       id="animacao-path"><path
         d="m 2282,8987 c -22,-7 -31,-15 -27,-25 4,-10 0,-12 -11,-8 -9,4 -22,0 -28,-8 -18,-24 -385,-167 -436,-170 -92,-6 -160,-60 -160,-126 0,-14 -43,-95 -97,-185 l -97,-159 -4,-88 -4,-87 57,-116 57,-115 39,31 c 22,17 42,29 44,27 3,-3 -9,-30 -26,-61 -20,-37 -37,-57 -49,-57 -10,0 -44,-15 -77,-33 -32,-18 -272,-145 -533,-282 -312,-163 -476,-254 -477,-264 -1,-19 -120,-310 -133,-326 -9,-11 100,-269 123,-291 7,-7 63,-24 126,-38 l 113,-26 108,57 109,57 20,-25 c 11,-13 20,-34 21,-46 0,-11 16,-65 35,-120 97,-269 155,-449 178,-550 28,-126 52,-186 97,-242 26,-31 36,-59 51,-137 11,-54 21,-99 23,-101 13,-13 162,-56 209,-60 51,-5 61,-3 82,17 14,13 25,28 25,33 0,5 14,38 32,74 27,55 43,72 117,127 95,70 91,65 167,271 20,55 51,123 70,152 20,30 37,71 40,97 4,25 10,46 14,46 3,0 44,-51 90,-112 46,-62 88,-119 94,-126 7,-10 4,-24 -8,-47 -18,-32 -18,-33 5,-65 18,-24 24,-45 24,-83 1,-139 5,-188 16,-181 8,5 10,34 6,90 -2,47 -1,87 4,90 5,3 9,-3 9,-13 0,-10 5,-69 11,-132 6,-62 8,-116 5,-119 -3,-3 -15,5 -26,18 l -20,23 v -45 c 0,-35 -7,-54 -29,-81 -15,-20 -31,-55 -35,-77 -10,-61 -23,-40 -30,49 -5,54 -12,84 -23,93 -19,16 -118,17 -133,2 -8,-8 -6,-36 6,-102 l 18,-91 53,-3 c 29,-2 53,-7 53,-13 -1,-5 -12,-9 -26,-7 -25,4 -25,3 -17,-50 13,-97 6,-118 -44,-118 -19,0 -23,-6 -23,-32 0,-36 -14,-66 -23,-50 -4,5 -3,29 1,53 7,42 9,44 41,44 h 33 l -5,58 c -3,32 -8,61 -10,64 -16,16 -43,-25 -74,-113 -31,-87 -36,-116 -43,-239 -8,-140 -50,-458 -75,-570 -7,-33 -21,-119 -30,-191 l -17,-130 31,-50 c 34,-52 49,-62 96,-63 17,-1 40,-8 52,-16 20,-14 23,-14 33,5 7,13 9,46 4,89 -4,46 -3,71 5,75 7,5 11,-4 11,-26 0,-46 29,-205 46,-253 13,-36 13,-41 -2,-50 -9,-5 -26,-18 -38,-28 l -21,-18 25,12 c 14,7 42,23 63,37 20,14 39,23 40,21 2,-2 9,-51 16,-109 7,-58 14,-121 17,-140 5,-34 3,-36 -58,-75 -35,-22 -69,-41 -75,-43 -11,-3 -19,-52 -9,-52 2,0 24,11 47,25 45,26 79,32 79,15 0,-5 13,-29 30,-52 l 30,-43 -16,-47 c -15,-45 -15,-51 6,-119 16,-55 19,-74 9,-79 -7,-5 11,-13 45,-21 50,-11 77,-29 42,-29 -7,0 -41,-15 -76,-32 -49,-26 -72,-46 -106,-94 -24,-34 -44,-67 -44,-73 0,-7 12,-28 26,-46 24,-32 25,-40 20,-107 -3,-40 -8,-188 -12,-328 -3,-140 -8,-257 -9,-259 -6,-6 46,-142 77,-205 32,-64 44,-121 28,-131 -6,-3 -13,2 -16,12 -11,34 -87,184 -91,179 -3,-2 16,-53 42,-112 34,-78 45,-115 41,-136 -3,-15 -2,-28 2,-28 4,0 26,-17 50,-38 42,-36 43,-38 47,-112 4,-71 -1,-74 -20,-15 -6,18 -7,18 -15,4 -7,-12 -103,-91 -128,-105 -2,-1 64,-121 74,-133 2,-2 16,4 30,14 27,17 28,17 46,-5 32,-40 24,-88 -27,-152 -25,-32 -45,-60 -45,-63 0,-4 78,-135 86,-144 3,-3 10,1 16,7 21,21 38,13 38,-16 0,-17 -20,-54 -55,-102 -121,-165 -109,-136 -115,-299 -3,-80 -1,-175 4,-210 l 9,-64 63,-28 c 79,-36 88,-36 80,-4 -4,14 -2,25 4,25 5,0 10,-13 10,-30 0,-22 5,-30 18,-30 9,0 76,-3 147,-6 72,-3 168,-1 215,3 78,7 85,10 91,33 6,23 7,23 8,3 1,-12 4,-24 9,-26 4,-3 38,7 75,21 55,20 74,32 94,64 25,38 26,41 19,159 -4,67 -14,160 -22,208 -9,56 -11,114 -7,166 l 6,80 14,-35 c 8,-19 38,-90 66,-157 l 52,-123 90,-49 90,-48 125,11 c 172,15 169,12 208,178 67,281 64,250 35,370 l -25,108 22,45 c 12,26 24,66 25,91 3,45 -2,50 -42,45 -9,-1 -13,11 -13,35 0,39 30,88 120,194 93,110 91,106 73,183 -11,47 -19,67 -28,63 -21,-8 -24,4 -11,42 7,21 21,78 31,127 9,50 25,99 35,110 10,11 48,79 85,150 37,72 101,174 141,229 41,54 74,104 74,110 0,6 -4,48 -10,94 -7,66 -6,99 6,159 15,68 15,79 0,112 -8,20 -24,81 -35,136 -11,55 -24,116 -29,136 -6,25 -6,42 2,55 19,34 56,158 56,191 0,40 -37,198 -164,697 -53,209 -96,389 -96,400 0,27 33,136 41,136 8,0 19,-37 19,-67 0,-13 4,-23 9,-23 10,0 91,165 91,186 0,8 -21,64 -46,125 -39,91 -46,118 -41,154 4,38 2,45 -15,51 -25,8 -48,62 -48,112 0,23 -8,49 -19,63 -10,13 -29,62 -41,109 -13,47 -27,90 -32,97 -5,6 -28,11 -50,10 -63,-4 -78,23 -78,137 0,59 4,96 12,104 7,7 17,55 23,108 10,82 9,98 -3,111 -12,12 -13,21 -3,53 8,26 16,37 25,34 17,-7 86,151 86,198 l 1,33 20,-28 c 12,-15 55,-55 97,-89 139,-113 148,-123 172,-199 l 23,-70 -33,-87 c -18,-48 -44,-102 -57,-120 -15,-19 -23,-41 -20,-52 3,-11 -1,-24 -8,-30 -9,-7 -12,-24 -9,-48 7,-52 36,-166 44,-172 4,-3 17,-36 30,-75 12,-38 37,-92 54,-120 27,-41 35,-67 46,-151 7,-56 10,-109 7,-118 -4,-9 -17,-16 -31,-16 -13,0 -27,-7 -30,-16 -11,-28 6,-188 21,-206 14,-16 10,-24 -44,-85 -46,-52 -64,-82 -78,-130 -17,-60 -17,-62 2,-87 17,-22 21,-40 20,-116 v -91 l 34,-25 c 37,-27 47,-48 48,-111 1,-36 7,-48 48,-86 l 46,-44 39,15 c 21,8 38,21 38,28 0,18 48,41 89,42 34,1 67,22 76,51 3,9 25,23 49,30 34,10 60,29 105,79 l 61,65 v 84 c 0,94 24,215 46,234 9,8 14,32 14,77 0,58 3,69 26,93 19,20 27,39 28,69 1,40 -7,52 -17,26 -5,-12 -65,-16 -119,-7 -4,0 -19,21 -33,45 l -26,44 60,93 c 34,51 62,96 63,100 2,3 18,4 36,2 32,-5 32,-6 32,-61 0,-33 4,-52 9,-47 5,6 16,147 25,315 10,168 21,344 27,392 5,47 6,95 2,105 -3,10 -26,44 -51,76 l -44,59 3,120 4,120 -59,24 c -44,18 -78,24 -133,24 -47,0 -72,4 -68,10 3,6 21,10 39,10 h 33 l -43,90 c -27,53 -54,132 -69,196 -14,58 -32,122 -40,142 -17,40 -6,57 29,46 16,-5 18,-3 12,22 -4,16 -14,42 -22,58 -8,16 -14,34 -14,41 0,7 -16,32 -34,57 l -35,45 24,23 c 24,22 24,25 18,139 -3,64 -10,124 -15,134 -11,21 -38,23 -38,1 0,-8 -4,-12 -10,-9 -10,6 -125,-31 -146,-47 -8,-6 -40,12 -90,48 -44,31 -100,67 -125,79 -25,13 -52,32 -60,42 -13,17 -13,17 13,0 15,-9 36,-17 46,-17 10,0 23,-3 28,-7 6,-5 -9,11 -33,34 -24,23 -43,44 -43,47 0,9 149,-61 223,-105 68,-41 68,-41 120,-28 29,7 58,12 66,12 25,0 -65,73 -125,101 -50,24 -228,90 -347,129 -50,17 -97,10 -97,-15 0,-7 -5,-6 -12,4 -7,9 -37,21 -65,28 -38,8 -53,17 -53,28 0,12 -43,36 -140,80 -77,34 -148,62 -158,62 -12,0 -35,26 -66,76 -27,41 -46,77 -44,79 2,2 103,53 224,112 206,101 227,114 305,187 64,59 106,88 174,121 238,113 308,145 390,178 50,20 146,61 215,90 117,51 126,57 145,95 19,40 21,41 60,36 99,-12 112,-20 136,-87 11,-30 17,-36 34,-31 51,15 52,28 7,113 -23,43 -42,83 -42,88 0,18 46,31 91,26 66,-7 193,49 225,98 l 22,36 -26,41 c -21,32 -33,42 -54,42 -44,0 -159,-50 -202,-88 -45,-40 -121,-76 -142,-68 -13,5 -13,9 0,28 32,45 7,98 -46,98 -21,0 -98,-26 -173,-60 -11,-4 -63,-11 -115,-14 -89,-6 -112,-13 -375,-110 -217,-80 -296,-104 -351,-109 -39,-4 -73,-5 -76,-2 -3,3 1,34 9,68 18,78 11,125 -30,194 -29,48 -35,53 -67,53 -43,0 -71,-18 -100,-66 -22,-34 -22,-36 -5,-74 17,-38 17,-39 -15,-137 -18,-54 -34,-99 -35,-101 -3,-4 -258,-52 -277,-52 -9,0 -19,8 -23,18 -3,11 -16,24 -29,30 -38,17 -238,65 -276,65 -35,1 -221,-80 -234,-102 -16,-26 -24,-6 -25,66 l -1,78 -95,142 c -68,103 -108,153 -142,178 -27,19 -50,34 -53,34 -3,-1 -20,-6 -38,-12 z m 68,-47 c 0,-6 -8,-13 -17,-17 -10,-3 -112,-41 -226,-85 -115,-44 -211,-77 -213,-75 -3,2 89,41 203,86 114,45 217,86 228,91 11,5 21,9 23,9 1,1 2,-4 2,-9 z m -594,-250 c -6,-29 -14,-46 -19,-41 -9,9 11,91 23,91 4,0 2,-23 -4,-50 z m 90,-18 c -14,-28 -31,-54 -37,-58 -6,-4 3,21 21,55 39,73 53,75 16,3 z m 588,36 c -8,-28 -12,-33 -20,-25 -9,8 6,47 17,47 6,0 7,-10 3,-22 z m 115,-44 c 6,-6 6,-6 -139,-71 -74,-34 -206,-93 -293,-132 -132,-59 -161,-69 -178,-60 -12,6 -18,13 -16,16 3,2 14,0 24,-5 14,-8 35,-1 93,29 72,36 74,38 40,39 -31,1 -33,2 -15,12 10,6 59,28 109,50 68,29 92,35 103,27 10,-9 36,-2 111,31 109,48 127,60 92,61 -23,0 -23,1 -5,9 18,7 63,3 74,-6 z m -760,-176 c 30,-35 61,-50 61,-30 0,4 -13,28 -28,53 -42,66 -44,69 -38,69 3,0 28,-33 55,-74 l 50,-74 -23,-16 c -23,-15 -25,-14 -82,62 -57,76 -87,121 -49,73 11,-13 35,-42 54,-63 z m 2685,57 c 3,-9 0,-15 -8,-15 -7,0 -19,7 -26,15 -10,12 -9,15 8,15 11,0 22,-7 26,-15 z M 2980,8410 c 0,-5 -7,-10 -15,-10 -8,0 -15,5 -15,10 0,6 7,10 15,10 8,0 15,-4 15,-10 z m -40,-10 c 0,-5 -7,-10 -15,-10 -8,0 -15,5 -15,10 0,6 7,10 15,10 8,0 15,-4 15,-10 z m -2,-76 c -10,-10 -28,6 -28,24 0,15 1,15 17,-1 9,-9 14,-19 11,-23 z m 37,26 c -3,-5 -11,-10 -16,-10 -6,0 -7,5 -4,10 3,6 11,10 16,10 6,0 7,-4 4,-10 z m -30,-60 c 3,-5 2,-10 -4,-10 -5,0 -13,5 -16,10 -3,6 -2,10 4,10 5,0 13,-4 16,-10 z m 0,-50 c 3,-5 1,-10 -4,-10 -6,0 -11,5 -11,10 0,6 2,10 4,10 3,0 8,-4 11,-10 z m -436,-55 c 11,-47 10,-58 -3,-77 -15,-22 -16,-20 -16,32 0,30 -3,65 -6,78 -4,12 -2,22 3,22 6,0 15,-25 22,-55 z m 581,-59 c 0,-9 -120,-47 -130,-41 -20,12 6,29 58,36 66,9 72,9 72,5 z m -500,-171 c 44,-28 75,-68 65,-84 -3,-6 -1,-19 4,-28 6,-10 11,-12 11,-5 0,6 5,12 10,12 18,0 11,-23 -31,-104 l -40,-78 37,6 c 35,7 36,6 30,-16 -3,-13 -6,-33 -6,-45 0,-36 -16,-27 -60,30 -22,28 -47,59 -55,68 -12,13 -13,22 -5,43 5,15 10,58 10,96 0,38 5,72 11,75 7,5 2,16 -12,31 -29,31 -19,30 31,-1 z m 335,6 c 3,-11 3,-31 -1,-45 -4,-17 -2,-26 6,-26 6,0 9,4 6,9 -3,5 1,11 9,15 25,9 17,-20 -10,-38 -42,-28 -62,-21 -70,23 -8,46 7,81 35,81 10,0 21,-9 25,-19 z m 181,-2 c 3,-6 -3,-20 -14,-32 -18,-18 -25,-19 -46,-9 -14,6 -34,9 -43,5 -13,-4 -15,-3 -8,5 9,10 78,39 97,41 4,1 10,-4 14,-10 z m -66,-123 c 0,-19 -45,23 -48,45 -2,23 -2,23 23,-6 14,-16 25,-34 25,-39 z m 115,45 c -3,-6 -11,-11 -17,-11 -6,0 -6,6 2,15 14,17 26,13 15,-4 z m -600,-297 c 13,-43 23,-79 22,-80 -1,-1 -19,5 -40,13 l -39,16 7,46 c 9,61 16,93 22,88 2,-3 15,-40 28,-83 z m 179,-22 c 9,-17 16,-41 16,-53 v -22 l -25,23 c -14,13 -23,30 -20,38 2,7 1,11 -4,8 -15,-10 -29,18 -24,47 5,27 6,28 23,9 10,-10 25,-33 34,-50 z m -1201,-9 c -12,-21 -36,-48 -55,-61 -18,-13 -32,-30 -30,-37 2,-11 -4,-11 -33,-2 -43,13 -49,7 -50,-46 0,-37 -3,-42 -25,-45 -13,-2 -39,-17 -57,-32 -17,-16 -47,-34 -66,-41 -18,-6 -42,-25 -53,-42 -12,-19 -44,-42 -92,-64 -54,-25 -78,-43 -96,-71 -13,-20 -33,-46 -45,-56 -16,-14 -21,-31 -21,-66 0,-39 -4,-49 -22,-59 -13,-6 -15,-9 -5,-7 9,3 17,2 17,-2 0,-4 -52,-31 -116,-59 l -117,-53 -41,19 c -36,16 -44,26 -69,85 l -27,67 27,80 28,80 180,93 c 99,51 276,144 392,205 117,61 221,111 230,111 10,0 45,15 78,34 50,27 62,30 75,19 12,-11 11,-18 -7,-50 z m 1847,-67 c -6,-19 -18,-40 -26,-46 -19,-16 -18,-11 7,45 23,53 37,54 19,1 z m 100,-3 c 0,-16 -16,-28 -38,-31 -21,-3 -22,-2 -10,17 12,20 48,30 48,14 z m 56,-76 c 15,-28 15,-29 -1,-23 -9,3 -20,6 -24,6 -7,0 -31,43 -31,55 0,2 9,1 20,-2 12,-3 28,-19 36,-36 z m 119,-57 c -26,-79 -44,-108 -25,-39 20,69 2,64 -20,-6 -17,-54 -28,-66 -48,-55 -34,17 -191,80 -201,80 -14,0 -14,19 0,58 9,27 14,30 30,22 10,-6 19,-19 19,-30 0,-13 15,-27 48,-44 83,-42 90,-42 109,-2 11,23 24,36 36,36 21,0 67,43 67,62 0,6 3,9 6,5 3,-3 -6,-42 -21,-87 z m 164,38 c 15,1 39,-12 66,-37 39,-36 40,-38 16,-36 -14,1 -63,6 -107,10 -101,9 -118,18 -85,45 12,11 27,17 32,14 5,-3 9,0 9,6 0,7 8,9 23,4 12,-4 33,-7 46,-6 z m -526,-234 c 28,-34 31,-58 5,-36 -18,15 -51,72 -41,72 4,0 21,-16 36,-36 z m 287,-16 c -11,-42 -16,-47 -66,-67 -29,-13 -59,-20 -66,-18 -8,3 -6,6 4,6 10,1 37,11 62,23 37,18 45,27 51,57 7,39 14,55 21,48 3,-3 0,-25 -6,-49 z m -280,-60 c 0,-5 -4,-8 -9,-8 -11,0 -71,80 -71,94 0,12 79,-74 80,-86 z m 440,42 c 8,-5 11,-12 7,-16 -4,-4 -15,0 -24,9 -18,18 -8,23 17,7 z m 8,-41 c 38,-21 53,-26 49,-15 -5,13 -2,13 18,4 28,-13 34,-30 8,-21 -12,4 -11,0 5,-11 24,-18 29,-36 11,-36 -20,0 -169,92 -163,101 8,13 12,12 72,-22 z m -613,9 c 3,-3 1,-18 -5,-34 -7,-16 -15,-47 -20,-69 -4,-22 -18,-67 -30,-100 l -22,-60 23,-38 c 70,-111 54,-99 189,-135 l 124,-33 44,23 c 24,13 55,39 68,60 13,20 29,40 35,44 8,5 9,3 3,-7 -5,-8 -10,-30 -11,-51 -2,-31 0,-35 17,-31 25,7 53,50 46,71 -4,12 -2,12 10,-3 14,-19 11,-24 -68,-100 -46,-44 -87,-88 -93,-98 -9,-16 -15,-16 -85,11 -125,49 -417,69 -530,37 -30,-9 -93,-27 -140,-40 -47,-13 -103,-30 -125,-39 -68,-26 -75,-23 -150,71 -90,111 -94,115 -114,108 -20,-6 -40,14 -66,64 l -17,34 33,26 c 19,14 45,39 59,55 53,61 170,153 212,166 24,7 51,21 61,29 29,25 249,50 409,47 76,-1 140,-5 143,-8 z m 226,-38 c 27,-12 38,-33 22,-43 -5,-3 -23,7 -41,22 -25,21 -31,33 -25,47 6,16 8,17 11,2 2,-9 16,-22 33,-28 z m -185,-73 c 10,-28 17,-55 16,-59 -2,-7 45,-22 109,-34 18,-4 46,-13 61,-21 25,-12 31,-11 68,12 22,14 46,25 54,25 10,0 23,26 37,70 13,39 26,70 30,70 4,0 -4,-33 -17,-74 -23,-67 -30,-78 -71,-104 l -46,-30 -56,18 c -31,10 -82,26 -114,35 -54,15 -60,20 -77,58 -25,57 -36,102 -22,93 6,-3 18,-30 28,-59 z m 779,2 c 17,-9 54,-24 83,-34 29,-9 51,-19 49,-21 -10,-10 -174,50 -185,67 -10,16 -9,17 6,12 9,-4 31,-14 47,-24 z m 465,-37 c 0,-68 0,-69 -41,-102 l -41,-32 7,68 c 6,58 12,74 38,102 17,17 32,32 34,32 2,0 3,-31 3,-68 z M 1603,6812 c 27,-52 28,-55 13,-95 -8,-23 -29,-89 -46,-146 -28,-90 -30,-109 -21,-150 12,-56 20,-161 12,-161 -8,1 -80,105 -111,160 -32,56 -66,164 -79,250 -9,54 -8,68 5,88 10,15 14,38 11,61 -6,51 20,83 106,131 l 72,40 5,-63 c 4,-40 15,-81 33,-115 z m 2375,79 c 51,-19 90,-36 88,-38 -2,-3 -35,4 -73,15 -37,11 -85,23 -105,26 -46,8 -51,16 -42,63 l 7,36 16,-34 c 14,-30 27,-38 109,-68 z m -2368,47 c 0,-19 -2,-20 -10,-8 -13,19 -13,30 0,30 6,0 10,-10 10,-22 z m 113,-206 c 89,-32 247,-104 247,-114 0,-18 -106,-167 -123,-173 -14,-5 -17,-14 -13,-38 4,-27 3,-26 -6,6 -7,23 -17,36 -24,33 -8,-3 -18,10 -25,32 -18,56 -51,103 -111,157 -34,32 -52,56 -50,68 5,26 22,21 22,-7 0,-19 13,-33 58,-60 60,-37 94,-79 114,-146 8,-25 18,-39 27,-38 21,4 125,158 115,168 -13,13 -218,99 -274,115 -25,7 -37,14 -27,14 10,1 41,-7 70,-17 z m 2467,13 c 0,-3 -11,-10 -25,-15 -14,-6 -25,-17 -25,-28 0,-23 -73,-93 -155,-149 -73,-49 -145,-86 -145,-75 0,5 11,14 25,20 90,41 255,172 255,203 0,10 12,25 28,33 29,16 42,19 42,11 z M 1606,6592 c -21,-20 -27,-22 -22,-9 3,11 9,30 12,44 6,23 8,23 23,9 14,-15 13,-18 -13,-44 z m 2593,1 c 18,-33 27,-61 22,-66 -14,-14 13,-89 36,-98 20,-7 20,-5 -4,37 -14,25 -23,47 -21,49 2,3 33,-50 68,-118 34,-67 70,-130 78,-140 14,-16 14,-17 1,-12 -9,3 -29,33 -45,67 -31,64 -85,121 -92,97 -6,-17 -33,-49 -42,-49 -4,0 -35,45 -69,100 -34,55 -65,100 -69,100 -4,0 -29,-20 -57,-44 l -50,-44 39,-56 c 55,-80 115,-146 143,-157 23,-8 32,-29 13,-29 -5,0 -10,4 -10,8 0,5 -9,13 -19,18 -21,10 -100,103 -149,175 l -32,47 48,38 c 66,53 91,75 121,105 40,41 56,36 90,-28 z M 1605,6383 c 19,-13 40,-23 47,-23 6,0 9,-3 5,-6 -3,-3 -24,2 -46,12 -33,15 -43,27 -52,57 -6,23 -7,52 -2,70 7,28 8,25 11,-28 3,-56 5,-61 37,-82 z m 142,105 c -3,-8 -6,-5 -6,6 -1,11 2,17 5,13 3,-3 4,-12 1,-19 z m -25,-116 c -24,-13 -46,-22 -48,-19 -2,2 14,12 36,22 37,17 40,21 41,59 l 2,41 6,-40 c 6,-39 5,-41 -37,-63 z m 2388,42 c 0,-8 -4,-12 -10,-9 -5,3 -10,13 -10,21 0,8 5,12 10,9 6,-3 10,-13 10,-21 z m 50,-75 c 0,-5 -4,-9 -8,-9 -9,0 -32,44 -32,58 1,10 40,-38 40,-49 z m -9,-39 c 9,-10 23,-20 30,-22 8,-3 10,-9 6,-14 -15,-16 -62,23 -68,58 -6,28 -5,30 5,14 6,-11 18,-27 27,-36 z M 1626,6174 c 7,-21 16,-55 19,-77 l 7,-39 35,62 c 26,45 32,64 23,70 -8,5 -3,9 14,12 l 26,5 -21,-36 c -12,-20 -35,-60 -50,-88 l -28,-53 -12,58 c -7,31 -23,80 -37,107 -18,38 -20,46 -6,33 9,-9 23,-34 30,-54 z m 2579,48 c -3,-3 -11,0 -18,7 -9,10 -8,11 6,5 10,-3 15,-9 12,-12 z m 249,-33 c 20,-22 41,-51 46,-65 24,-61 18,-75 -96,-232 -60,-83 -112,-151 -115,-151 -3,-1 -5,19 -4,43 1,28 17,75 43,131 23,48 39,92 35,98 -3,6 -1,7 6,3 6,-4 14,0 17,8 7,19 26,21 23,4 -1,-7 -1,-21 0,-32 1,-15 4,-16 16,-6 10,9 15,9 15,1 0,-20 15,-11 38,24 12,19 22,47 21,62 0,25 -1,26 -9,8 -10,-25 -40,-52 -40,-37 0,6 -7,9 -16,5 -13,-5 -15,-3 -6,13 6,11 20,28 31,38 29,27 27,39 -19,80 -22,20 -40,38 -40,41 0,15 22,0 54,-36 z m -198,15 c 18,-14 18,-14 -6,-3 -31,14 -36,19 -24,19 6,0 19,-7 30,-16 z m 109,-36 c 19,17 19,17 1,-5 -19,-24 -30,-22 -71,12 -12,10 -6,9 16,-4 33,-19 36,-19 54,-3 z m 60,2 c 3,-5 1,-18 -5,-27 -11,-17 -11,-16 -5,1 3,11 0,23 -7,28 -9,5 -10,8 -1,8 6,0 15,-4 18,-10 z m -25,-91 c 13,-9 13,-10 -2,-5 -10,3 -18,-1 -21,-12 -3,-12 -5,-11 -6,6 -1,24 6,27 29,11 z m -1045,-69 c -3,-5 -15,-10 -25,-10 -10,0 -22,5 -25,10 -4,6 7,10 25,10 18,0 29,-4 25,-10 z m -257,-17 c -4,-20 -27,-27 -47,-14 -19,12 -4,31 25,31 19,0 25,-5 22,-17 z m -243,-3 c -3,-5 -15,-10 -26,-10 -11,0 -17,5 -14,10 3,6 15,10 26,10 11,0 17,-4 14,-10 z m 172,4 c -3,-3 -12,-4 -19,-1 -8,3 -5,6 6,6 11,1 17,-2 13,-5 z m 1543,-33 c 0,-6 -4,-13 -10,-16 -5,-3 -26,-30 -45,-60 -45,-67 -50,-71 -108,-79 l -47,-7 44,63 c 57,81 73,96 116,101 19,2 38,5 43,5 4,1 7,-2 7,-7 z m 187,-105 c 38,-13 61,-28 85,-58 27,-34 29,-40 13,-36 -11,3 -41,12 -67,19 -27,7 -48,17 -48,21 0,4 -15,24 -32,45 -18,20 -26,34 -18,31 8,-3 39,-13 67,-22 z m -2253,-93 c 9,-56 7,-109 -3,-97 -12,12 -23,134 -12,134 5,0 11,-17 15,-37 z m 2341,-690 c -3,-13 -10,-21 -15,-18 -14,9 -12,102 3,128 11,20 12,17 15,-32 2,-30 1,-65 -3,-78 z m -2615,49 c -20,-7 -40,7 -40,29 v 22 l 26,-24 c 14,-13 20,-25 14,-27 z m 353,-831 c 18,-7 36,-31 61,-82 42,-84 41,-81 19,-152 l -16,-54 -42,20 c -38,19 -48,32 -99,132 -31,62 -56,116 -56,121 0,34 63,41 133,15 z m 549,-731 c -5,-45 14,-129 65,-299 37,-124 56,-266 42,-314 -10,-36 -3,-73 17,-81 16,-6 84,-109 84,-128 0,-7 -17,-31 -38,-53 -72,-76 -97,-115 -85,-134 6,-9 14,-31 18,-49 3,-18 11,-32 16,-32 13,0 11,-190 -2,-269 -14,-82 -34,-116 -99,-165 -47,-36 -51,-42 -45,-70 24,-120 45,-260 45,-311 0,-33 7,-80 15,-104 15,-42 14,-48 -31,-230 -26,-102 -52,-197 -59,-211 -7,-14 -18,-52 -24,-85 -23,-122 -32,-93 -52,158 -11,143 -8,215 13,317 9,48 8,67 -11,142 -21,85 -21,87 -2,130 l 18,43 -40,63 c -36,58 -39,66 -31,110 4,26 6,110 5,187 -2,113 3,170 24,294 28,161 28,164 -3,250 l -20,54 24,39 c 32,50 31,85 -3,120 -27,29 -27,29 -9,62 10,18 32,49 50,67 31,33 33,39 50,189 10,85 27,188 37,229 11,41 19,85 19,98 0,12 3,23 8,23 4,0 6,-18 4,-40 z m 965,-502 c -3,-8 -6,-5 -6,6 -1,11 2,17 5,13 3,-3 4,-12 1,-19 z"
         id="path47" /><path
         d="m 2619,7870 c -2,-14 -6,-30 -9,-32 -1,-2 -4,-16 -6,-33 -2,-16 -6,-40 -9,-52 -6,-26 -2,-28 26,-12 16,8 18,13 9,24 -8,10 -10,32 -5,65 4,27 4,50 1,50 -3,0 -7,-4 -7,-10 z"
         id="path49" /><path
         d="m 920,7078 -23,-33 28,27 c 16,15 26,30 23,33 -3,4 -16,-9 -28,-27 z"
         id="path51" /><path
         d="m 3506,7417 c 3,-10 9,-15 12,-12 3,3 0,11 -7,18 -10,9 -11,8 -5,-6 z"
         id="path53" /><path
         d="m 2815,6989 c -74,-63 -115,-104 -60,-61 55,43 131,111 125,112 -3,0 -32,-23 -65,-51 z"
         id="path55" /><path
         d="m 2849,6973 c -13,-16 -12,-17 4,-4 9,7 17,15 17,17 0,8 -8,3 -21,-13 z"
         id="path57" /><path
         d="m 2544,6962 c -43,-29 -4,-72 60,-64 36,4 38,6 32,34 -5,28 -4,29 12,17 14,-11 15,-11 5,0 -13,15 -92,25 -109,13 z m 56,-42 c 0,-5 -12,-10 -26,-10 -14,0 -23,4 -19,10 3,6 15,10 26,10 10,0 19,-4 19,-10 z"
         id="path59" /><path
         d="m 2809,6943 c -13,-16 -12,-17 4,-4 9,7 17,15 17,17 0,8 -8,3 -21,-13 z"
         id="path61" /><path
         d="m 2536,6708 c -11,-16 -13,-25 -5,-33 7,-7 13,-5 20,8 11,18 39,24 39,7 0,-5 7,-10 15,-10 19,0 19,14 -1,34 -22,22 -50,20 -68,-6 z"
         id="path63" /><path
         d="m 3021,6721 c -10,-7 -9,-11 8,-23 11,-8 18,-17 15,-21 -3,-3 3,-3 14,0 11,2 23,0 26,-6 12,-19 26,-12 26,14 0,36 -53,58 -89,36 z"
         id="path65" /><path
         d="m 2691,6695 c 0,-13 66,-91 73,-85 2,3 -13,25 -35,50 -21,25 -38,41 -38,35 z"
         id="path67" /><path
         d="m 3458,6646 c -26,-14 -38,-28 -38,-43 0,-27 2,-27 -75,-8 -76,18 -105,19 -105,1 0,-18 60,-27 79,-12 11,8 13,8 7,-1 -5,-10 9,-13 58,-13 40,0 66,4 66,11 0,5 -6,7 -12,4 -7,-4 3,7 22,24 19,17 38,31 42,31 4,0 8,7 8,15 0,19 -6,18 -52,-9 z"
         id="path69" /><path
         d="m 4140,7197 c 0,-2 26,-21 58,-41 31,-20 45,-27 30,-14 -30,26 -88,62 -88,55 z"
         id="path71" /><path
         d="m 1007,6335 c 3,-27 9,-57 13,-65 10,-19 25,-110 21,-129 -1,-7 3,-36 10,-65 l 13,-51 6,49 c 7,55 0,90 -41,221 -24,78 -27,83 -22,40 z"
         id="path73" /><path
         d="m 4766,4900 c -41,-80 -42,-83 -20,-104 24,-25 72,-21 79,7 10,37 1,160 -11,164 -6,2 -28,-28 -48,-67 z m -6,-80 c 0,-5 -5,-10 -11,-10 -5,0 -7,5 -4,10 3,6 8,10 11,10 2,0 4,-4 4,-10 z"
         id="path75" /></g></g></svg>
