<?xml version="1.0" encoding="UTF-8" standalone="no"?>
<svg
   version="1.0"
   viewBox="-40 -50 250 200"
   preserveAspectRatio="xMidYMid"
   id="logo"
   sodipodi:docname="logo.svg"
   inkscape:export-filename="logo.svg"
   inkscape:export-xdpi="96"
   inkscape:export-ydpi="96"
   xmlns:inkscape="http://www.inkscape.org/namespaces/inkscape"
   xmlns:sodipodi="http://sodipodi.sourceforge.net/DTD/sodipodi-0.dtd"
   xmlns="http://www.w3.org/2000/svg"
   xmlns:svg="http://www.w3.org/2000/svg">

   <style>
   <!--  LOGO  -->
      #logo {
         animation: logo-preenchimento 5s infinite alternate;
      }
      
      @keyframes logo-preenchimento {
         0%, 95% {
            fill: white;
         }
         100% {
            fill: transparent;
         }
      } 

      <!--  CONTORNO DO LOGO  -->
      #logo path {
         stroke-width: 20px;
         stroke: white;
      }

      <!-- LOGO DIREITO -->
      #logo-dir {
         animation: mov-dir 5s infinite;
      }

      @keyframes mov-dir {
         0%, 90% {
            left: 0;
            fill: blue;
         }

         95% {
            transform: translate(-200px, -200px);
            fill: red;
         }

         100% {
            left: 0;
            fill: blue;
         }
      }

            <!-- LOGO ESQUERDO -->
      #logo-esq {
         animation: mov-esq forwards 1s;
      }

      @keyframes mov-esq {
         from {
            transform: translate(200px, -200px);
         }
      }
   </style>
  <defs
     id="defs28" />
  <sodipodi:namedview
     id="namedview26"
     pagecolor="#ffffff"
     bordercolor="#000000"
     borderopacity="0.25"
     inkscape:showpageshadow="2"
     inkscape:pageopacity="0.0"
     inkscape:pagecheckerboard="0"
     inkscape:deskcolor="#d1d1d1"
     inkscape:document-units="pt"
     showgrid="false" />
  <g
     inkscape:groupmode="layer"
     id="logo-esq"
     inkscape:label="logo"
     style="display:inline"
     transform="translate(-22.5,-53.099113)">
    <path
       d="m 1352,1489 c -101,-126 -185,-236 -189,-244 -4,-13 16,-15 135,-15 h 140 l 51,58 50,59 3,186 c 2,103 1,187 -2,186 -3,0 -87,-104 -188,-230 z"
       id="path4"
       transform="matrix(0.1,0,0,-0.1,0,225)" />
    <path
       d="m 1100,660 c 0,-113 1,-120 20,-120 19,0 20,7 20,100 v 100 h 56 55 l -23,-31 c -13,-17 -29,-39 -36,-48 -11,-15 -7,-25 29,-69 33,-42 47,-52 70,-52 h 30 l -40,48 c -23,27 -41,52 -41,58 1,5 14,25 30,44 18,20 30,46 30,62 v 28 h -100 -100 z"
       id="path14"
       transform="matrix(0.1,0,0,-0.1,0,225)" />
    <path
       d="m 1360,660 c 0,-118 0,-120 23,-120 14,0 35,15 58,41 l 35,42 33,-42 c 22,-28 40,-41 57,-41 13,0 24,2 24,5 0,3 -41,57 -92,120 -69,87 -97,115 -115,115 -23,0 -23,-1 -23,-120 z m 74,-24 c -28,-37 -34,-32 -34,26 v 53 l 26,-27 c 26,-26 26,-26 8,-52 z"
       id="path16"
       transform="matrix(0.1,0,0,-0.1,0,225)" />
    <path
       d="m 1570,717 c 0,-43 5,-70 18,-87 l 17,-25 5,50 5,50 65,-83 c 47,-59 71,-82 88,-82 22,0 22,2 22,120 0,113 -1,120 -20,120 -17,0 -20,-8 -22,-85 l -3,-84 -68,84 c -44,55 -74,85 -87,85 -18,0 -20,-7 -20,-63 z"
       id="path18"
       transform="matrix(0.1,0,0,-0.1,0,225)" />
    <path
       d="m 1830,760 c 0,-16 7,-20 35,-20 h 35 V 640 c 0,-93 1,-100 20,-100 19,0 20,7 20,100 v 100 h 40 c 38,0 40,2 30,20 -9,18 -21,20 -95,20 -78,0 -85,-2 -85,-20 z"
       id="path20"
       transform="matrix(0.1,0,0,-0.1,0,225)" />
  </g>
  <g
     inkscape:groupmode="layer"
     id="logo-dir"
     inkscape:label="logo2"
     style="display:inline"
     transform="translate(-22.5,-53.099113)">
    <path
       d="M 650,1541 V 1358 L 797,1174 944,990 h 148 148 l -281,353 c -155,193 -288,359 -295,367 -12,12 -14,-14 -14,-169 z"
       id="path2"
       transform="matrix(0.1,0,0,-0.1,0,225)" />
    <path
       d="m 874,771 c -68,-31 -94,-114 -54,-178 54,-89 180,-81 222,14 16,36 17,49 8,82 -10,38 -58,91 -83,91 -7,0 -21,2 -32,5 -11,3 -38,-3 -61,-14 z m 115,-57 c 41,-52 17,-125 -45,-140 -60,-15 -114,49 -94,112 14,41 33,53 82,54 28,0 41,-6 57,-26 z"
       id="path6"
       transform="matrix(0.1,0,0,-0.1,0,225)" />
    <path
       d="M 225,660 V 540 h 25 c 20,1 43,23 105,102 117,148 111,138 78,138 -23,-1 -40,-16 -95,-87 l -68,-86 v 87 c 0,83 -1,86 -22,86 -23,0 -23,-2 -23,-120 z"
       id="path8"
       transform="matrix(0.1,0,0,-0.1,0,225)" />
    <path
       d="M 446,660 C 354,546 351,540 377,540 c 20,0 37,12 63,41 l 35,41 30,-41 c 22,-30 37,-41 58,-41 h 27 v 120 c 0,120 0,120 -24,120 -18,0 -45,-27 -120,-120 z m 92,-27 -3,-27 -18,27 c -17,26 -17,28 0,51 l 18,24 3,-24 c 2,-13 2,-36 0,-51 z"
       id="path10"
       transform="matrix(0.1,0,0,-0.1,0,225)" />
    <path
       d="M 640,660 V 540 h 63 c 58,0 87,11 87,32 0,4 -22,8 -50,8 h -50 v 100 100 h -25 -25 z"
       id="path12"
       transform="matrix(0.1,0,0,-0.1,0,225)" />
  </g>
</svg>
